<svg width="45" height="45" viewBox="0 0 45 45" fill="none" xmlns="http://www.w3.org/2000/svg">
<path d="M18.3499 18.5126C16.6781 18.5126 15.0439 18.0167 13.654 17.0876C12.2642 16.1585 11.1811 14.8381 10.5419 13.2933C9.90273 11.7486 9.73613 10.0489 10.0632 8.40944C10.3902 6.76996 11.1963 5.26433 12.3793 4.08308C13.5623 2.90183 15.0691 2.09803 16.7091 1.7734C18.349 1.44876 20.0484 1.61789 21.5922 2.25936C23.1361 2.90084 24.4549 3.98584 25.3819 5.37708C26.3089 6.76832 26.8024 8.40327 26.7999 10.0751C26.7933 12.313 25.9005 14.4571 24.3169 16.0384C22.7333 17.6196 20.5878 18.5093 18.3499 18.5126ZM18.3499 4.12505C17.1731 4.12505 16.0227 4.47401 15.0443 5.12781C14.0658 5.7816 13.3032 6.71087 12.8528 7.79809C12.4025 8.88531 12.2846 10.0817 12.5142 11.2358C12.7438 12.39 13.3105 13.4502 14.1426 14.2823C14.9747 15.1145 16.0349 15.6811 17.1891 15.9107C18.3433 16.1403 19.5396 16.0225 20.6269 15.5721C21.7141 15.1218 22.6433 14.3592 23.2971 13.3807C23.9509 12.4022 24.2999 11.2519 24.2999 10.0751C24.2999 8.49702 23.673 6.98361 22.5572 5.86777C21.4413 4.75193 19.9279 4.12505 18.3499 4.12505Z" fill="white"/>
<path d="M20.525 39.6001C20.2518 39.3268 20.0411 38.9976 19.9073 38.635C19.7735 38.2725 19.7198 37.8853 19.75 37.5001H5V30.2751C6.77238 28.3839 8.92214 26.8859 11.3101 25.8782C13.6981 24.8705 16.2711 24.3754 18.8625 24.4251H19.7625C19.7051 24.006 19.7452 23.5793 19.8796 23.1782C20.014 22.7771 20.2392 22.4125 20.5375 22.1126L20.6875 21.9751C20.1 21.9751 19.4375 21.9001 18.8625 21.9001C15.813 21.8277 12.7855 22.4338 9.99897 23.6747C7.21241 24.9156 4.73641 26.7602 2.75 29.0751C2.58772 29.2915 2.5 29.5546 2.5 29.8251V37.5001C2.5 38.1631 2.76339 38.799 3.23223 39.2679C3.70107 39.7367 4.33696 40.0001 5 40.0001H20.875L20.525 39.6001Z" fill="white"/>
<path d="M33.5874 20.3605C33.6492 20.3502 33.7131 20.3502 33.7749 20.3605C33.7129 20.3515 33.6494 20.3515 33.5874 20.3605Z" fill="white"/>
<path d="M42.1001 29.1501L39.6001 28.3876C39.4214 27.7761 39.1784 27.1853 38.8751 26.6251L40.1251 24.3001C40.1657 24.2071 40.1755 24.1035 40.153 24.0045C40.1306 23.9055 40.0769 23.8164 40.0001 23.7501L38.1876 21.9376C38.119 21.8634 38.0275 21.8144 37.9277 21.7985C37.828 21.7827 37.7258 21.8008 37.6376 21.8501L35.3376 23.1001C34.7712 22.7817 34.1719 22.526 33.5501 22.3376L32.7876 19.8376C32.7552 19.7456 32.6938 19.6666 32.6127 19.6124C32.5315 19.5583 32.435 19.5321 32.3376 19.5376H29.7751C29.6766 19.5364 29.5806 19.5676 29.5015 19.6263C29.4225 19.685 29.3649 19.768 29.3376 19.8626L28.5751 22.3626C27.949 22.5447 27.3453 22.7963 26.7751 23.1126L24.5001 21.8626C24.4138 21.8143 24.3137 21.7966 24.2161 21.8125C24.1184 21.8284 24.0291 21.8769 23.9626 21.9501L22.1126 23.7501C22.044 23.8223 21.9998 23.9143 21.9864 24.013C21.9729 24.1117 21.9908 24.2121 22.0376 24.3001L23.2876 26.5751C22.957 27.1385 22.6927 27.7384 22.5001 28.3626L20.0001 29.1126C19.9055 29.1399 19.8225 29.1975 19.7638 29.2765C19.7051 29.3556 19.6739 29.4517 19.6751 29.5501V32.1126C19.6825 32.2029 19.7177 32.2886 19.7759 32.3581C19.8341 32.4275 19.9125 32.4771 20.0001 32.5001L22.5001 33.2626C22.6848 33.8758 22.9363 34.4668 23.2501 35.0251L22.0001 37.4126C21.9524 37.4981 21.9339 37.5969 21.9474 37.6939C21.961 37.7909 22.0058 37.8809 22.0751 37.9501L23.8876 39.7626C23.9584 39.8332 24.0497 39.8797 24.1484 39.8954C24.2472 39.9111 24.3484 39.8953 24.4376 39.8501L26.7751 38.6001C27.3314 38.8993 27.918 39.1381 28.5251 39.3126L29.2751 41.8126C29.3058 41.9051 29.3643 41.9859 29.4426 42.0441C29.5208 42.1022 29.6151 42.1349 29.7126 42.1376H32.2751C32.373 42.1367 32.4682 42.1048 32.5468 42.0464C32.6254 41.988 32.6835 41.9061 32.7126 41.8126L33.4751 39.2501C34.0741 39.0755 34.6525 38.8366 35.2001 38.5376L37.5626 39.7876C37.6494 39.8337 37.749 39.8502 37.8461 39.8344C37.9431 39.8186 38.0324 39.7714 38.1001 39.7001L40.0001 38.0001C40.0512 37.9267 40.0785 37.8395 40.0785 37.7501C40.0785 37.6607 40.0512 37.5734 40.0001 37.5001L38.7501 35.1501C39.0535 34.5987 39.2966 34.0161 39.4751 33.4126L41.9751 32.6501C42.0696 32.6228 42.1526 32.5652 42.2113 32.4861C42.27 32.4071 42.3012 32.311 42.3001 32.2126V29.5876C42.3115 29.5032 42.2988 29.4173 42.2634 29.3399C42.228 29.2624 42.1714 29.1966 42.1001 29.1501ZM31.0626 35.0001C30.2358 35.0026 29.4269 34.7595 28.7384 34.3017C28.0499 33.8439 27.5128 33.192 27.1953 32.4286C26.8777 31.6652 26.794 30.8247 26.9547 30.0137C27.1154 29.2026 27.5133 28.4576 28.0979 27.8729C28.6826 27.2883 29.4276 26.8904 30.2387 26.7297C31.0497 26.569 31.8902 26.6528 32.6536 26.9703C33.417 27.2878 34.0689 27.8249 34.5267 28.5134C34.9845 29.2019 35.2275 30.0108 35.2251 30.8376C35.2218 31.9405 34.7822 32.9974 34.0023 33.7773C33.2224 34.5572 32.1655 34.9968 31.0626 35.0001Z" fill="white"/>
</svg>
