<svg width="46" height="46" viewBox="0 0 46 46" fill="none" xmlns="http://www.w3.org/2000/svg">
<path d="M7.69897 17.48C7.69897 17.877 8.02824 18.2063 8.42529 18.2063H37.5748C37.9815 18.2063 38.3108 17.877 38.3108 17.48C38.3108 17.0829 37.9815 16.7537 37.5844 16.7537H8.42529C8.02824 16.7537 7.69897 17.0829 7.69897 17.48Z" fill="white"/>
<path d="M23 35.5315H8.42529C8.02824 35.5315 7.69897 35.8608 7.69897 36.2578C7.69897 36.6549 8.02824 36.9841 8.42529 36.9841H23C23.3971 36.9841 23.7264 36.6549 23.7264 36.2578C23.7264 35.8608 23.3971 35.5315 23 35.5315Z" fill="white"/>
<path d="M37.5748 39.8118H32.0645C31.6674 39.8118 31.3381 40.141 31.3381 40.5381C31.3381 40.9351 31.6674 41.2644 32.0645 41.2644H37.5748C37.9815 41.2644 38.3011 40.9351 38.3011 40.5381C38.3011 40.141 37.9718 39.8118 37.5748 39.8118Z" fill="white"/>
<path d="M41.8841 0H4.11572C3.71867 0 3.3894 0.329263 3.3894 0.726316V45.2737C3.3894 45.6707 3.71867 46 4.11572 46H41.8841C42.2812 46 42.6105 45.6707 42.6105 45.2737V0.726316C42.6105 0.329263 42.2812 0 41.8841 0ZM9.15151 1.45263H15.7852V11.0691L13.0058 8.464C12.725 8.20253 12.2989 8.20253 12.018 8.464L9.15151 11.0884V1.45263ZM41.1675 44.5474H41.1578H4.84204V1.45263H7.69888V12.7444C7.69888 13.035 7.87319 13.2964 8.13467 13.4126C8.39614 13.5288 8.70604 13.4804 8.91909 13.2771L12.5022 9.97474L16.0176 13.2674C16.1532 13.3933 16.3372 13.4611 16.5115 13.4611C16.6084 13.4611 16.7052 13.4417 16.802 13.4029C17.0635 13.2867 17.2378 13.0253 17.2378 12.7347V1.44295H41.1675V44.5474Z" fill="white"/>
<path d="M37.5844 20.5112H8.42529C8.02824 20.5112 7.69897 20.8405 7.69897 21.2375C7.69897 21.6346 8.02824 21.9639 8.42529 21.9639H37.5748C37.9815 21.9639 38.3108 21.6346 38.3108 21.2375C38.3108 20.8405 37.9815 20.5112 37.5844 20.5112Z" fill="white"/>
<path d="M37.5844 24.2686H8.42529C8.02824 24.2686 7.69897 24.5978 7.69897 24.9949C7.69897 25.3919 8.02824 25.7212 8.42529 25.7212H37.5748C37.9815 25.7212 38.3108 25.3919 38.3108 24.9949C38.3108 24.5978 37.9815 24.2686 37.5844 24.2686Z" fill="white"/>
<path d="M37.5844 28.0166H8.42529C8.02824 28.0166 7.69897 28.3459 7.69897 28.7429C7.69897 29.14 8.02824 29.4692 8.42529 29.4692H37.5748C37.9815 29.4692 38.3108 29.14 38.3108 28.7429C38.3108 28.3459 37.9815 28.0166 37.5844 28.0166Z" fill="white"/>
<path d="M37.5844 31.7739H8.42529C8.02824 31.7739 7.69897 32.1032 7.69897 32.5002C7.69897 32.8973 8.02824 33.2266 8.42529 33.2266H37.5748C37.9815 33.2266 38.3108 32.8973 38.3108 32.5002C38.3108 32.1032 37.9815 31.7739 37.5844 31.7739Z" fill="white"/>
</svg>
