<svg width="40" height="40" viewBox="0 0 40 40" fill="none" xmlns="http://www.w3.org/2000/svg">
<g clip-path="url(#clip0_194_135)">
<path d="M9.02128 23.8512H12.6387C13.3268 23.8512 13.8846 23.2935 13.8846 22.6054V14.7171C13.8846 14.029 13.3268 13.4712 12.6387 13.4712H9.02128C8.33315 13.4712 7.77539 14.029 7.77539 14.7171V22.6054C7.77539 23.2935 8.33315 23.8512 9.02128 23.8512Z" fill="white"/>
<path d="M18.1914 23.8512H21.8088C22.497 23.8512 23.0547 23.2935 23.0547 22.6054V11.0391C23.0547 10.351 22.497 9.79321 21.8088 9.79321H18.1914C17.5033 9.79321 16.9456 10.351 16.9456 11.0391V22.6055C16.9456 23.2935 17.5033 23.8512 18.1914 23.8512Z" fill="white"/>
<path d="M27.3616 23.8512H30.979C31.6671 23.8512 32.2249 23.2934 32.2249 22.6053V20.0879C32.2249 19.3998 31.6671 18.842 30.979 18.842H27.3616C26.6735 18.842 26.1157 19.3998 26.1157 20.0879V22.6053C26.1157 23.2934 26.6735 23.8512 27.3616 23.8512Z" fill="white"/>
<path d="M38.1201 2.98606H21.9674V1.96719C21.9674 0.880775 21.0866 0 20.0002 0C18.9138 0 18.033 0.880775 18.033 1.96719V2.98606H1.88016C1.19204 2.98606 0.634277 3.54382 0.634277 4.23194V29.8054C0.634277 30.4935 1.19204 31.0513 1.88016 31.0513H18.033V33.7685L12.741 36.2513C11.7574 36.713 11.3341 37.8842 11.7956 38.8678C12.2569 39.8514 13.4285 40.2746 14.4121 39.8132L18.1169 38.075C18.3606 38.8847 19.1111 39.4749 20.0002 39.4749C20.8892 39.4749 21.6398 38.8847 21.8834 38.0752L25.5883 39.8134C26.5728 40.275 27.7437 39.8508 28.2048 38.868C28.6663 37.8844 28.243 36.713 27.2594 36.2515L21.9674 33.7686V31.0514H38.1202C38.8083 31.0514 39.3661 30.4936 39.3661 29.8055V4.23208C39.366 3.54382 38.8082 2.98606 38.1201 2.98606ZM35.4316 27.1169H4.56865V6.92043H35.4316V27.1169Z" fill="white"/>
</g>
<defs>
<clipPath id="clip0_194_135">
<rect width="40" height="40" fill="white"/>
</clipPath>
</defs>
</svg>
