<svg width="46" height="46" viewBox="0 0 46 46" fill="none" xmlns="http://www.w3.org/2000/svg">
<path d="M45.2333 11.5H21.4667H12.2667H0.766667C0.306667 11.5 0 11.8067 0 12.2667V45.2333C0 45.6933 0.306667 46 0.766667 46H45.2333C45.6933 46 46 45.6933 46 45.2333V12.2667C46 11.8067 45.6933 11.5 45.2333 11.5ZM20.7 13.0333V23.7667H13.0333V13.0333H20.7ZM44.4667 44.4667H32.9667V36.8H31.4333V44.4667H1.53333V13.0333H11.5V24.5333C11.5 24.9933 11.8067 25.3 12.2667 25.3H21.4667C21.9267 25.3 22.2333 24.9933 22.2333 24.5333V13.0333H31.4333V25.3H32.9667V13.0333H44.4667V44.4667Z" fill="white"/>
<path d="M12.2667 37.5667H5.3667V39.1H12.2667V37.5667Z" fill="white"/>
<path d="M19.1667 40.6333H5.3667V42.1666H19.1667V40.6333Z" fill="white"/>
<path d="M39.8666 15.3333H35.2666V16.8666H39.8666V15.3333Z" fill="white"/>
<path d="M42.1666 18.3999H35.2666V19.9332H42.1666V18.3999Z" fill="white"/>
<path d="M42.1667 40.6333H37.5667V42.1666H42.1667V40.6333Z" fill="white"/>
<path d="M42.1666 37.5667H35.2666V39.1H42.1666V37.5667Z" fill="white"/>
<path d="M45.2333 0H0.766667C0.306667 0 0 0.306667 0 0.766667V7.66667C0 8.12667 0.306667 8.43333 0.766667 8.43333H45.2333C45.6933 8.43333 46 8.12667 46 7.66667V0.766667C46 0.306667 45.6933 0 45.2333 0ZM44.4667 6.9H1.53333V1.53333H6.9V4.6H8.43333V1.53333H14.5667V4.6H16.1V1.53333H22.2333V4.6H23.7667V1.53333H29.9V4.6H31.4333V1.53333H37.5667V4.6H39.1V1.53333H44.4667V6.9Z" fill="white"/>
<path d="M36.2634 34.5C36.4168 34.5 36.4934 34.4234 36.6468 34.3467L41.7068 32.2C42.0134 32.1234 42.1668 31.8167 42.1668 31.51C42.1668 31.2034 42.0134 30.9734 41.7068 30.82L36.6468 28.6734C36.4934 28.52 36.3401 28.4434 36.1101 28.4434H5.44342C4.98342 28.4434 4.67676 28.75 4.67676 29.21V33.81C4.67676 34.27 4.98342 34.5767 5.44342 34.5767H36.1101C36.1101 34.5 36.1868 34.5 36.2634 34.5ZM11.5001 32.2H35.2668V32.9667H11.5001V32.2ZM36.8001 32.5834V30.2834L39.4834 31.4334L36.8001 32.5834ZM35.2668 30.6667H11.5001V29.9H35.2668V30.6667ZM6.13342 29.9H9.96676V32.9667H6.13342V29.9Z" fill="white"/>
</svg>
