<svg width="55" height="51" viewBox="0 0 55 51" fill="none" xmlns="http://www.w3.org/2000/svg">
<g clip-path="url(#clip0_162_60)" filter="url(#filter0_d_162_60)">
<g clip-path="url(#clip1_162_60)">
<path d="M11.4193 0.5V31.6612H6.22584C4.99872 31.6612 4 32.6599 4 33.887C4 35.1142 4.99872 36.1129 6.22584 36.1129H8.45169V36.8548C8.45169 38.082 9.4504 39.0807 10.6775 39.0807H11.4195V46.5H43.6297L50 40.1297V0.5H11.4193ZM8.45169 34.629H6.22584C5.81701 34.629 5.4839 34.2966 5.4839 33.887C5.4839 33.4774 5.81701 33.1451 6.22584 33.1451H8.45169V34.629ZM11.4193 37.5966H10.6774C10.2685 37.5966 9.93543 37.2643 9.93543 36.8547V36.1127H11.4193V37.5966ZM9.93543 34.629V33.1451H36.6451V34.629H9.93543ZM44.0644 43.9669V40.5644H47.4669L44.0644 43.9669ZM48.5159 39.0805H42.5805V45.0159H12.9032V39.0805H16.5039L16.7183 38.7117C16.9899 38.2451 17.7206 38.2451 17.9922 38.7117L18.2058 39.0805H20.3225V37.5966H19.0057C18.588 37.1308 17.987 36.8547 17.3549 36.8547C16.7228 36.8547 16.1219 37.1306 15.7041 37.5966H12.9032V36.1127H36.7816C37.0887 36.9742 37.9049 37.5966 38.8709 37.5966C39.7123 37.5966 40.4379 37.1217 40.8155 36.431L43.4153 37.7309L48.2201 33.887L43.4153 30.0431L40.8155 31.343C40.4379 30.6523 39.7123 30.1775 38.8709 30.1775C37.9049 30.1775 37.0888 30.7999 36.7816 31.6613H12.9032V1.9839H48.5159V39.0805ZM38.129 35.3709V32.4031C38.129 31.9935 38.4621 31.6612 38.8709 31.6612C39.2798 31.6612 39.6129 31.9935 39.6129 32.4031V35.3709C39.6129 35.7805 39.2798 36.1129 38.8709 36.1129C38.4621 36.1129 38.129 35.7805 38.129 35.3709ZM44.917 34.629L43.2298 35.9786L41.0968 34.9124V32.8617L43.2298 31.7955L44.917 33.1451H43.3226V34.629H44.917Z" fill="white"/>
<path d="M38.1291 4.20972H15.1292V20.5323H38.1291V4.20972ZM36.6452 19.0482H16.6129V13.6151L23.2903 10.9441L30.4337 13.8021L30.9849 12.4243L29.2213 11.7186L33.7101 9.47424L36.6452 10.6473V19.0482ZM27.428 11.0005L26.1904 10.5057C26.7454 9.82169 27.583 9.4032 28.4837 9.4032C28.9706 9.4032 29.4357 9.52566 29.8513 9.74441L27.4102 10.9648L27.428 11.0005ZM36.6452 9.04921L33.644 7.84872L31.3588 8.9914C30.5664 8.31037 29.5596 7.9193 28.4839 7.9193C26.9755 7.9193 25.58 8.69381 24.7668 9.93668L23.2904 9.34617L16.6129 12.017V5.69346H36.6452V9.04921Z" fill="white"/>
<path d="M46.2902 4.20972H39.6128V5.69361H46.2902V4.20972Z" fill="white"/>
<path d="M46.2902 7.91943H39.6128V9.40333H46.2902V7.91943Z" fill="white"/>
<path d="M46.2902 11.6292H39.6128V13.113H46.2902V11.6292Z" fill="white"/>
<path d="M46.2902 15.3386H39.6128V16.8225H46.2902V15.3386Z" fill="white"/>
<path d="M46.2902 19.0483H39.6128V20.5322H46.2902V19.0483Z" fill="white"/>
<path d="M17.3548 27.9515H18.8387V24.242H21.0646V22.7581H15.1292V24.242H17.3548V27.9515Z" fill="white"/>
<path d="M46.2902 22.7581H23.2903V24.242H46.2902V22.7581Z" fill="white"/>
<path d="M46.2902 26.4678H23.2903V27.9517H46.2902V26.4678Z" fill="white"/>
</g>
</g>
<defs>
<filter id="filter0_d_162_60" x="0" y="0.5" width="58.8086" height="50" filterUnits="userSpaceOnUse" color-interpolation-filters="sRGB">
<feFlood flood-opacity="0" result="BackgroundImageFix"/>
<feColorMatrix in="SourceAlpha" type="matrix" values="0 0 0 0 0 0 0 0 0 0 0 0 0 0 0 0 0 0 127 0" result="hardAlpha"/>
<feOffset dy="4"/>
<feGaussianBlur stdDeviation="2"/>
<feComposite in2="hardAlpha" operator="out"/>
<feColorMatrix type="matrix" values="0 0 0 0 0 0 0 0 0 0 0 0 0 0 0 0 0 0 0.25 0"/>
<feBlend mode="normal" in2="BackgroundImageFix" result="effect1_dropShadow_162_60"/>
<feBlend mode="normal" in="SourceGraphic" in2="effect1_dropShadow_162_60" result="shape"/>
</filter>
<clipPath id="clip0_162_60">
<rect width="50.8085" height="42" fill="white" transform="translate(4 0.5)"/>
</clipPath>
<clipPath id="clip1_162_60">
<rect width="46" height="46" fill="white" transform="translate(4 0.5)"/>
</clipPath>
</defs>
</svg>
