<svg width="46" height="46" viewBox="0 0 46 46" fill="none" xmlns="http://www.w3.org/2000/svg">
<g style="mix-blend-mode:screen">
<path d="M21.2384 8.87549C20.833 8.87549 20.5044 9.20414 20.5044 9.60951V11.0776C20.5044 11.4829 20.833 11.8116 21.2384 11.8116C21.6438 11.8116 21.9724 11.4829 21.9724 11.0776V9.60951C21.9724 9.20414 21.6438 8.87549 21.2384 8.87549Z" fill="white"/>
<path d="M13.9957 8.87549C13.5904 8.87549 13.2617 9.20414 13.2617 9.60951V11.0776C13.2617 11.4829 13.5904 11.8116 13.9957 11.8116C14.4011 11.8116 14.7298 11.4829 14.7298 11.0776V9.60951C14.7298 9.20414 14.4011 8.87549 13.9957 8.87549Z" fill="white"/>
<path d="M19.2692 13.7925C18.8766 13.691 18.4761 13.9268 18.3746 14.3192C18.2849 14.6657 17.9734 14.9076 17.6171 14.9076C17.2609 14.9076 16.9493 14.6657 16.8596 14.3192C16.7579 13.9267 16.3576 13.6907 15.9651 13.7925C15.5726 13.8941 15.3368 14.2945 15.4384 14.687C15.6955 15.6813 16.5915 16.3757 17.6169 16.3757C18.6424 16.3757 19.5382 15.6813 19.7956 14.687C19.8974 14.2946 19.6615 13.894 19.2692 13.7925Z" fill="white"/>
<path d="M25.8229 25.8961C23.3328 24.4817 20.4952 23.7341 17.617 23.7341C8.44262 23.7341 0.97876 31.1981 0.97876 40.3724C0.97876 40.7778 1.30741 41.1064 1.71278 41.1064H22.7558C23.1612 41.1064 23.4898 40.7778 23.4898 40.3724C23.4898 39.967 23.1611 39.6383 22.7557 39.6383H2.46424C2.75605 33.5427 6.66299 28.3794 12.0823 26.2483C12.5608 28.8695 14.8596 30.8635 17.6169 30.8635C20.3745 30.8635 22.6735 28.8692 23.1517 26.2477C23.8204 26.5093 24.4715 26.817 25.0978 27.1727C25.4502 27.373 25.8984 27.2494 26.0986 26.897C26.2989 26.5445 26.1754 26.0964 25.8229 25.8961ZM17.6169 29.3954C15.5053 29.3954 13.7574 27.8134 13.4932 25.7725C14.805 25.4015 16.188 25.2021 17.6169 25.2021C19.0165 25.2021 20.4047 25.3978 21.7405 25.774C21.4755 27.8141 19.7279 29.3954 17.6169 29.3954Z" fill="white"/>
<path d="M17.617 0C12.0044 0 7.43823 4.56613 7.43823 10.1788V12.1362C7.43823 17.7488 12.0044 22.3149 17.617 22.3149C23.2296 22.3149 27.7957 17.7488 27.7957 12.1362V10.1788C27.7956 4.56613 23.2294 0 17.617 0ZM26.3276 12.1362C26.3276 16.9392 22.42 20.8468 17.617 20.8468C12.8139 20.8468 8.90637 16.9392 8.90637 12.1362V10.1788C8.90637 5.37571 12.8139 1.46814 17.617 1.46814C22.42 1.46814 26.3276 5.37571 26.3276 10.1788V12.1362Z" fill="white"/>
<path d="M34.4998 24.9573C28.6983 24.9573 23.9785 29.677 23.9785 35.4785C23.9785 41.28 28.6983 45.9999 34.4998 45.9999C40.3012 45.9999 45.021 41.28 45.021 35.4786C45.021 29.6772 40.3012 24.9573 34.4998 24.9573ZM33.7657 44.5019C32.5391 44.403 31.3807 44.0585 30.34 43.5177L30.3402 38.2679H33.7657V44.5019ZM30.8537 36.7999L32.4848 33.8637H36.5146L38.1458 36.7999H30.8537ZM33.3004 32.3956L34.4998 30.2369L35.699 32.3956H33.3004ZM35.2339 44.5019V38.2679H38.6594L38.6595 43.5177C37.6187 44.0586 36.4605 44.403 35.2339 44.5019ZM40.1276 42.5646L40.1275 37.5339C40.1275 37.4091 40.0957 37.2864 40.0351 37.1775L37.5929 32.7815L37.5906 32.7772L35.1415 28.3688C35.012 28.1358 34.7663 27.9912 34.4998 27.9912C34.2334 27.9912 33.9876 28.1358 33.8582 28.3688L31.4091 32.7772L31.4068 32.7815L28.9646 37.1775C28.904 37.2865 28.8722 37.4092 28.8722 37.5339L28.872 42.5646C26.7863 40.9045 25.4467 38.3453 25.4467 35.4785C25.4467 30.4865 29.508 26.4253 34.4999 26.4253C39.4919 26.4253 43.5531 30.4865 43.5531 35.4785C43.553 38.3453 42.2133 40.9047 40.1276 42.5646Z" fill="white"/>
</g>
</svg>
