<svg width="46" height="46" viewBox="0 0 46 46" fill="none" xmlns="http://www.w3.org/2000/svg">
<path d="M43.0319 10.1963H14.1508C12.5142 10.1963 11.1828 11.5279 11.1828 13.1644V14.2371H2.96808C1.33139 14.2371 0 15.5685 0 17.2052V32.836C0 34.4726 1.33139 35.8041 2.96808 35.8041H31.8491C33.4857 35.8041 34.8172 34.4726 34.8172 32.836V31.7633H43.0318C44.6684 31.7633 45.9999 30.4319 45.9999 28.7952V13.1644C46 11.5278 44.6686 10.1963 43.0319 10.1963ZM32.9846 32.836C32.9846 33.4621 32.4752 33.9715 31.8492 33.9715H2.96808C2.34205 33.9715 1.83263 33.462 1.83263 32.836V17.2052C1.83263 16.5791 2.34205 16.0697 2.96808 16.0697H31.8491C32.4752 16.0697 32.9845 16.5791 32.9845 17.2052V32.836H32.9846ZM44.1674 28.7952C44.1674 29.4212 43.658 29.9306 43.0319 29.9306H34.8172V27.3466H44.1674V28.7952ZM44.1674 25.5139H34.8172V22.8359H44.1674V25.5139ZM44.1674 21.0031H34.8172V17.2051C34.8172 15.5685 33.4858 14.237 31.8492 14.237H13.0154V13.1644C13.0154 12.5382 13.5248 12.0289 14.1508 12.0289H43.0318C43.6579 12.0289 44.1673 12.5383 44.1673 13.1644V21.0031H44.1674Z" fill="white"/>
<path d="M8.41678 29.9304H4.72222C4.21613 29.9304 3.80591 30.3406 3.80591 30.8467C3.80591 31.3528 4.21613 31.7631 4.72222 31.7631H8.41669C8.92278 31.7631 9.33301 31.3528 9.33301 30.8467C9.33301 30.3406 8.92278 29.9304 8.41678 29.9304Z" fill="white"/>
<path d="M15.2957 29.9304H11.6011C11.095 29.9304 10.6848 30.3406 10.6848 30.8467C10.6848 31.3528 11.095 31.7631 11.6011 31.7631H15.2957C15.8018 31.7631 16.212 31.3528 16.212 30.8467C16.212 30.3406 15.8018 29.9304 15.2957 29.9304Z" fill="white"/>
<path d="M22.2097 29.9304H18.5152C18.0091 29.9304 17.5989 30.3406 17.5989 30.8467C17.5989 31.3528 18.0091 31.7631 18.5152 31.7631H22.2097C22.7157 31.7631 23.126 31.3528 23.126 30.8467C23.126 30.3406 22.7157 29.9304 22.2097 29.9304Z" fill="white"/>
<path d="M29.9069 29.9304H29.7706C29.2645 29.9304 28.8542 30.3406 28.8542 30.8467C28.8542 31.3528 29.2645 31.7631 29.7706 31.7631H29.9069C30.413 31.7631 30.8233 31.3528 30.8233 30.8467C30.8233 30.3406 30.413 29.9304 29.9069 29.9304Z" fill="white"/>
<path d="M27.0432 29.9304H25.3943C24.8883 29.9304 24.478 30.3406 24.478 30.8467C24.478 31.3528 24.8883 31.7631 25.3943 31.7631H27.0432C27.5492 31.7631 27.9595 31.3528 27.9595 30.8467C27.9595 30.3406 27.5492 29.9304 27.0432 29.9304Z" fill="white"/>
<path d="M7.56495 17.9021H5.82648C4.66057 17.9021 3.71191 18.8507 3.71191 20.0167V21.7551C3.71191 22.9211 4.66048 23.8697 5.82648 23.8697H7.56495C8.73086 23.8697 9.67952 22.9211 9.67952 21.7551V20.0167C9.67943 18.8506 8.73086 17.9021 7.56495 17.9021ZM7.84679 21.7551C7.84679 21.9105 7.72038 22.0369 7.56495 22.0369H5.82648C5.67105 22.0369 5.54464 21.9104 5.54464 21.7551V20.0166C5.54464 19.8611 5.67114 19.7347 5.82648 19.7347H7.56495C7.72038 19.7347 7.84679 19.8612 7.84679 20.0166V21.7551Z" fill="white"/>
</svg>
