<svg width="52" height="54" viewBox="0 0 52 54" fill="none" xmlns="http://www.w3.org/2000/svg">
<g filter="url(#filter0_d_120_534)">
<path d="M41.0873 31.8167L36.797 37.9807L33.7695 35.496C33.4429 35.2261 32.9591 35.2752 32.6908 35.6018C32.4217 35.9291 32.4692 36.4129 32.7973 36.6805L36.4666 39.6927C36.6038 39.8062 36.7763 39.8667 36.9527 39.8667C36.9872 39.8667 37.0224 39.8644 37.0577 39.8591C37.2693 39.8299 37.4594 39.7134 37.5821 39.5378L42.3462 32.6923C42.5877 32.345 42.5026 31.8673 42.1545 31.6251C41.8064 31.382 41.3296 31.4687 41.0873 31.8167Z" fill="white"/>
<path d="M37.8834 26.1058V5.36667C37.8834 4.9427 37.5399 4.6 37.1167 4.6H30.9834V3.06667C30.9834 2.6427 30.6399 2.3 30.2167 2.3H25.6167V0.766667C25.6167 0.3427 25.2733 0 24.8501 0H17.9501C17.5269 0 17.1834 0.3427 17.1834 0.766667V2.3H12.5834C12.1602 2.3 11.8167 2.6427 11.8167 3.06667V4.6H5.68341C5.26021 4.6 4.91675 4.9427 4.91675 5.36667V43.7C4.91675 44.124 5.26021 44.4667 5.68341 44.4667H31.8298C33.3647 45.4327 35.174 46 37.1167 46C42.6122 46 47.0834 41.5288 47.0834 36.0333C47.0834 30.7962 43.0208 26.4991 37.8834 26.1058ZM18.7167 1.53333H24.0834V3.06667V4.6H18.7167V3.06667V1.53333ZM13.3501 3.83333H17.1834V5.36667C17.1834 5.79063 17.5269 6.13333 17.9501 6.13333H24.8501C25.2733 6.13333 25.6167 5.79063 25.6167 5.36667V3.83333H29.4501V5.36667V6.9H13.3501V5.36667V3.83333ZM6.45008 42.9333V6.13333H11.8167V7.66667C11.8167 8.09063 12.1602 8.43333 12.5834 8.43333H30.2167C30.6399 8.43333 30.9834 8.09063 30.9834 7.66667V6.13333H36.3501V26.0958C36.3064 26.0989 36.2642 26.1081 36.2205 26.1119C36.071 26.1257 35.9238 26.1472 35.7766 26.1679C35.601 26.1916 35.4247 26.2154 35.2522 26.2476C35.1042 26.276 34.9601 26.3112 34.8144 26.3457C34.6465 26.3856 34.4786 26.4262 34.3146 26.4745C34.1712 26.5167 34.0309 26.565 33.8906 26.6133C33.7296 26.6685 33.5701 26.7252 33.413 26.7889C33.2757 26.8441 33.1408 26.9039 33.0059 26.9652C32.8525 27.035 32.7015 27.107 32.5528 27.1837C32.4217 27.2512 32.2929 27.3225 32.1656 27.3961C32.0215 27.4789 31.8796 27.5647 31.7401 27.6552C31.6159 27.7349 31.494 27.817 31.3744 27.9021C31.2387 27.9979 31.1068 28.0976 30.9765 28.2003C30.8615 28.2908 30.748 28.382 30.6376 28.4771C30.5111 28.5859 30.3885 28.6986 30.2681 28.8136C30.1631 28.9133 30.0588 29.0137 29.9576 29.118C29.8411 29.2384 29.7299 29.3633 29.6195 29.4898C29.5244 29.5987 29.4294 29.7068 29.3397 29.8195C29.2339 29.9514 29.135 30.0878 29.0361 30.2251C28.9525 30.3416 28.8674 30.4566 28.7884 30.577C28.6941 30.7203 28.6083 30.8683 28.5209 31.0163C28.4496 31.1389 28.376 31.2593 28.3093 31.3843C28.2272 31.5399 28.1544 31.7001 28.08 31.8596C28.0218 31.9861 27.9597 32.1103 27.906 32.2399C27.837 32.4078 27.778 32.5803 27.7182 32.752C27.6729 32.88 27.6239 33.0065 27.584 33.1369C27.528 33.3209 27.4851 33.5095 27.4399 33.6973C27.41 33.8223 27.3739 33.9442 27.3479 34.0707C27.3057 34.2815 27.2781 34.4977 27.2497 34.7131C27.2352 34.822 27.2137 34.9278 27.2022 35.0374C27.1677 35.3663 27.1501 35.6975 27.1501 36.0333C27.1501 36.3668 27.1677 36.698 27.2007 37.0254C27.2129 37.1496 27.2375 37.2692 27.2543 37.3926C27.2819 37.5943 27.3065 37.7959 27.3463 37.9945C27.3732 38.1286 27.4115 38.259 27.4437 38.3916C27.4882 38.5748 27.5296 38.7588 27.5848 38.939C27.6223 39.0609 27.6691 39.179 27.7113 39.2993C27.7757 39.4856 27.8393 39.6727 27.9152 39.8544C27.9574 39.9564 28.0072 40.0537 28.0532 40.1534C28.1414 40.3481 28.2311 40.5421 28.3315 40.7307C28.376 40.8127 28.4258 40.8917 28.4726 40.9722C28.586 41.1708 28.701 41.367 28.8283 41.5572C28.8751 41.6269 28.9264 41.6929 28.9747 41.7619C29.1097 41.9535 29.2477 42.1437 29.3972 42.3261C29.4524 42.3936 29.5122 42.4565 29.5689 42.5224C29.6877 42.6604 29.8012 42.8015 29.9277 42.9333H6.45008ZM37.1167 44.4667C35.3856 44.4667 33.7748 43.9407 32.4347 43.043C32.1733 42.8682 31.9264 42.678 31.6895 42.4787C31.6067 42.4089 31.5285 42.333 31.4488 42.2594C31.2977 42.1222 31.1513 41.9811 31.0118 41.8347C30.9221 41.7404 30.8354 41.6446 30.7503 41.5472C30.6246 41.4031 30.5065 41.2528 30.3915 41.1002C30.3179 41.0029 30.242 40.9078 30.1723 40.8074C30.0028 40.5613 29.8434 40.3083 29.7008 40.0461C29.6678 39.9847 29.6417 39.9196 29.6103 39.8582C29.4984 39.639 29.3941 39.4166 29.3013 39.1882C29.2615 39.0885 29.227 38.9865 29.1902 38.8846C29.1181 38.6837 29.0522 38.4805 28.9947 38.2743C28.9655 38.1677 28.9372 38.0619 28.9119 37.9538C28.8605 37.7353 28.8206 37.5138 28.7869 37.2907C28.7723 37.1948 28.7539 37.1005 28.7432 37.0032C28.7072 36.6835 28.6834 36.3599 28.6834 36.0333C28.6834 31.3835 32.4669 27.6 37.1167 27.6C41.7666 27.6 45.5501 31.3835 45.5501 36.0333C45.5501 40.6832 41.7666 44.4667 37.1167 44.4667Z" fill="white"/>
<path d="M10.2835 13.7999H20.2502C20.6734 13.7999 21.0168 13.4572 21.0168 13.0333C21.0168 12.6093 20.6734 12.2666 20.2502 12.2666H10.2835C9.86031 12.2666 9.51685 12.6093 9.51685 13.0333C9.51685 13.4572 9.86031 13.7999 10.2835 13.7999Z" fill="white"/>
<path d="M20.2502 35.2666H10.2835C9.86031 35.2666 9.51685 35.6093 9.51685 36.0333C9.51685 36.4572 9.86031 36.7999 10.2835 36.7999H20.2502C20.6734 36.7999 21.0168 36.4572 21.0168 36.0333C21.0168 35.6093 20.6734 35.2666 20.2502 35.2666Z" fill="white"/>
<path d="M10.2835 18.4H32.5168C32.94 18.4 33.2835 18.0573 33.2835 17.6334C33.2835 17.2094 32.94 16.8667 32.5168 16.8667H10.2835C9.86031 16.8667 9.51685 17.2094 9.51685 17.6334C9.51685 18.0573 9.86031 18.4 10.2835 18.4Z" fill="white"/>
<path d="M10.2835 27.6H28.6835C29.1067 27.6 29.4502 27.2573 29.4502 26.8333C29.4502 26.4094 29.1067 26.0667 28.6835 26.0667H10.2835C9.86031 26.0667 9.51685 26.4094 9.51685 26.8333C9.51685 27.2573 9.86031 27.6 10.2835 27.6Z" fill="white"/>
<path d="M24.8502 30.6667H10.2835C9.86031 30.6667 9.51685 31.0094 9.51685 31.4334C9.51685 31.8574 9.86031 32.2001 10.2835 32.2001H24.8502C25.2734 32.2001 25.6168 31.8574 25.6168 31.4334C25.6168 31.0094 25.2734 30.6667 24.8502 30.6667Z" fill="white"/>
<path d="M10.2835 22.9999H21.0168C21.44 22.9999 21.7835 22.6572 21.7835 22.2332C21.7835 21.8093 21.44 21.4666 21.0168 21.4666H10.2835C9.86031 21.4666 9.51685 21.8093 9.51685 22.2332C9.51685 22.6572 9.86031 22.9999 10.2835 22.9999Z" fill="white"/>
<path d="M32.5166 21.4666H27.15C26.7268 21.4666 26.3833 21.8093 26.3833 22.2332C26.3833 22.6572 26.7268 22.9999 27.15 22.9999H32.5166C32.9398 22.9999 33.2833 22.6572 33.2833 22.2332C33.2833 21.8093 32.9398 21.4666 32.5166 21.4666Z" fill="white"/>
<path d="M23.539 21.6891C23.3933 21.834 23.3167 22.0334 23.3167 22.2335C23.3167 22.4328 23.3933 22.6321 23.539 22.7778C23.6847 22.9227 23.884 23.0001 24.0833 23.0001C24.2827 23.0001 24.482 22.9227 24.6277 22.7778C24.7657 22.6321 24.85 22.4328 24.85 22.2335C24.85 22.0334 24.7657 21.834 24.6277 21.6891C24.344 21.4131 23.8303 21.4055 23.539 21.6891Z" fill="white"/>
</g>
<defs>
<filter id="filter0_d_120_534" x="-1" y="0" width="54" height="54" filterUnits="userSpaceOnUse" color-interpolation-filters="sRGB">
<feFlood flood-opacity="0" result="BackgroundImageFix"/>
<feColorMatrix in="SourceAlpha" type="matrix" values="0 0 0 0 0 0 0 0 0 0 0 0 0 0 0 0 0 0 127 0" result="hardAlpha"/>
<feOffset dy="4"/>
<feGaussianBlur stdDeviation="2"/>
<feComposite in2="hardAlpha" operator="out"/>
<feColorMatrix type="matrix" values="0 0 0 0 0 0 0 0 0 0 0 0 0 0 0 0 0 0 0.25 0"/>
<feBlend mode="normal" in2="BackgroundImageFix" result="effect1_dropShadow_120_534"/>
<feBlend mode="normal" in="SourceGraphic" in2="effect1_dropShadow_120_534" result="shape"/>
</filter>
</defs>
</svg>
