<svg width="46" height="46" viewBox="0 0 46 46" fill="none" xmlns="http://www.w3.org/2000/svg">
<path fill-rule="evenodd" clip-rule="evenodd" d="M30.6666 17.2499C30.6666 21.484 27.234 24.9166 22.9999 24.9166C18.7657 24.9166 15.3333 21.484 15.3333 17.2499C15.3333 13.0157 18.7657 9.58325 22.9999 9.58325C27.234 9.58325 30.6666 13.0157 30.6666 17.2499ZM26.8333 17.2499C26.8333 19.3671 25.1171 21.0833 22.9999 21.0833C20.8828 21.0833 19.1666 19.3671 19.1666 17.2499C19.1666 15.1328 20.8828 13.4166 22.9999 13.4166C25.1171 13.4166 26.8333 15.1328 26.8333 17.2499Z" fill="white"/>
<path fill-rule="evenodd" clip-rule="evenodd" d="M23.0001 1.91675C11.3561 1.91675 1.91675 11.3561 1.91675 23.0001C1.91675 34.644 11.3561 44.0834 23.0001 44.0834C34.644 44.0834 44.0834 34.644 44.0834 23.0001C44.0834 11.3561 34.644 1.91675 23.0001 1.91675ZM5.75008 23.0001C5.75008 27.0063 7.1158 30.6936 9.40704 33.6217C12.5589 29.4955 17.5304 26.8334 23.1237 26.8334C28.6443 26.8334 33.5594 29.4269 36.7167 33.4618C38.9333 30.56 40.2501 26.9338 40.2501 23.0001C40.2501 13.4732 32.5271 5.75008 23.0001 5.75008C13.4732 5.75008 5.75008 13.4732 5.75008 23.0001ZM23.0001 40.2501C18.8788 40.2501 15.0951 38.8047 12.1281 36.3934C14.5543 32.9307 18.5746 30.6667 23.1237 30.6667C27.6162 30.6667 31.5931 32.8749 34.0282 36.2651C31.0384 38.7534 27.1939 40.2501 23.0001 40.2501Z" fill="white"/>
</svg>
