<svg width="49" height="49" viewBox="0 0 49 49" fill="none" xmlns="http://www.w3.org/2000/svg">
<path d="M40.4252 33.3472V0.680556C40.4252 0.272222 40.1416 0 39.7164 0H7.82013C7.39485 0 7.11133 0.272222 7.11133 0.680556V10.2083H8.52894V1.36111H39.0076V32.6667H32.6283C32.203 32.6667 31.9195 32.9389 31.9195 33.3472V39.4722H8.52894V29.2639H7.11133V40.1528C7.11133 40.5611 7.39485 40.8333 7.82013 40.8333H32.6283C32.841 40.8333 32.9827 40.7653 33.1245 40.6292L40.2125 33.8236C40.2834 33.7556 40.2834 33.6875 40.3543 33.6194V33.5514C40.4252 33.4833 40.4252 33.4153 40.4252 33.3472ZM33.3371 34.0278H38.0152L35.6762 36.2736L33.3371 38.5194V34.0278Z" fill="white"/>
<path d="M12.0729 25.8611H16.3257H19.1609V24.5H17.0345V11.5695C17.0345 11.1611 16.751 10.8889 16.3257 10.8889H12.0729C11.6476 10.8889 11.3641 11.1611 11.3641 11.5695V15.6528H7.82003C7.39475 15.6528 7.11123 15.925 7.11123 16.3334V19.0556H3.5672C3.14192 19.0556 2.8584 19.3278 2.8584 19.7361V25.1806C2.8584 25.5889 3.14192 25.8611 3.5672 25.8611H7.82003H12.0729ZM12.7817 12.25H15.6169V24.5H12.7817V16.3334V12.25ZM8.52884 17.0139H11.3641V24.5H8.52884V19.7361V17.0139ZM4.27601 20.4167H7.11123V24.5H4.27601V20.4167Z" fill="white"/>
<path d="M36.1721 16.3333V4.76381C36.1721 4.35547 35.8886 4.08325 35.4633 4.08325H20.5784C20.1532 4.08325 19.8696 4.35547 19.8696 4.76381V16.3333C19.8696 16.7416 20.1532 17.0138 20.5784 17.0138H35.4633C35.8886 17.0138 36.1721 16.7416 36.1721 16.3333ZM34.7545 8.16659H26.2489V5.44436H34.7545V8.16659ZM24.8313 5.44436V8.16659H21.2872C21.2872 7.0777 21.2872 5.44436 21.2872 5.44436H24.8313ZM21.2872 9.5277H24.8313V15.6527H21.2872C21.2872 15.6527 21.2872 12.4541 21.2872 9.5277ZM26.2489 15.6527V9.5277H34.7545V15.6527H26.2489Z" fill="white"/>
<path d="M35.4633 19.0557H20.5784V20.4168H35.4633V19.0557Z" fill="white"/>
<path d="M35.4633 22.4583H20.5784V23.8194H35.4633V22.4583Z" fill="white"/>
<path d="M35.4633 25.8611H20.5784V27.2222H35.4633V25.8611Z" fill="white"/>
<path d="M14.9081 4.08325H10.6553V5.44436H14.9081V4.08325Z" fill="white"/>
<path d="M17.0345 7.48608H10.6553V8.8472H17.0345V7.48608Z" fill="white"/>
<path d="M15.6169 29.2639H10.6553V30.625H15.6169V29.2639Z" fill="white"/>
<path d="M22.7048 29.2639H17.7432V30.625H22.7048V29.2639Z" fill="white"/>
<path d="M29.7932 29.2639H24.8315V30.625H29.7932V29.2639Z" fill="white"/>
<path d="M15.6169 32.6667H10.6553V34.0279H15.6169V32.6667Z" fill="white"/>
<path d="M22.7048 32.6667H17.7432V34.0279H22.7048V32.6667Z" fill="white"/>
<path d="M29.7932 32.6667H24.8315V34.0279H29.7932V32.6667Z" fill="white"/>
<path d="M15.6169 36.0693H10.6553V37.4304H15.6169V36.0693Z" fill="white"/>
<path d="M22.7048 36.0693H17.7432V37.4304H22.7048V36.0693Z" fill="white"/>
<path d="M29.7932 36.0693H24.8315V37.4304H29.7932V36.0693Z" fill="white"/>
</svg>
