<svg width="46" height="46" viewBox="0 0 46 46" fill="none" xmlns="http://www.w3.org/2000/svg">
<path d="M46 42.2903V40.8065H42.2903V38.5806H43.7742V37.0968H40.8065V35.4764C41.6678 35.1692 42.2903 34.3531 42.2903 33.3871V29.6774H37.8387V33.3871C37.8387 34.3531 38.4612 35.1692 39.3226 35.4764V37.0968H36.3548V38.5806H37.8387V40.8065H29.2835L25.7964 36.6212L24.656 37.5716L28.5883 42.2896H28.9355V44.5154H23.7419V35.6129H32.6452V32.6452H34.129V31.9032C34.129 29.8904 33.5837 28.0058 32.6452 26.3743V2.96774H28.1935V2.22581C28.1935 0.998645 27.1949 0 25.9677 0C24.7406 0 23.7419 0.998645 23.7419 2.22581V2.96774H8.90323V2.22581C8.90323 0.998645 7.90458 0 6.67742 0C5.45026 0 4.45161 0.998645 4.45161 2.22581V2.96774H0V35.6129H22.2581V44.5161H18.5484V46H46V44.5161H44.5161V42.2903H46ZM19.3207 31.1613C19.5656 26.6281 21.962 23.6366 23 22.5496C24.038 23.6366 26.4344 26.6281 26.6793 31.1613H19.3207ZM20.7742 19.2903V20.9983C20.2645 21.1021 19.7726 21.252 19.2903 21.4234V19.2903H13.3548V23.7419H15.459C13.4298 25.6183 12.1032 28.2344 11.9081 31.1613H4.45161V11.871H28.1935V22.0674C27.7195 21.8159 27.2216 21.6052 26.7097 21.4234V19.2903H20.7742ZM25.2258 20.7742V20.9983C24.5061 20.8521 23.762 20.7742 23 20.7742C22.7492 20.7742 22.5044 20.7957 22.2581 20.812V20.7742H23H25.2258ZM17.8065 20.7742V22.0674C17.6929 22.1275 17.5824 22.1935 17.4711 22.2581H14.8387V20.7742H17.8065ZM21.1155 22.4443C19.8015 24.0803 18.0327 27.0317 17.8361 31.1613H13.383C13.7154 26.821 16.9325 23.276 21.1155 22.4443ZM31.1613 34.129H23.7419V32.6452H31.1613V34.129ZM28.1639 31.1613C27.9673 27.0317 26.1985 24.0803 24.8845 22.4443C29.0675 23.276 32.2846 26.821 32.617 31.1613H28.1639ZM25.2258 2.22581C25.2258 1.81626 25.5582 1.48387 25.9677 1.48387C26.3773 1.48387 26.7097 1.81626 26.7097 2.22581V6.67742C26.7097 7.08697 26.3773 7.41935 25.9677 7.41935C25.5582 7.41935 25.2258 7.08697 25.2258 6.67742V2.22581ZM5.93548 2.22581C5.93548 1.81626 6.26787 1.48387 6.67742 1.48387C7.08697 1.48387 7.41935 1.81626 7.41935 2.22581V6.67742C7.41935 7.08697 7.08697 7.41935 6.67742 7.41935C6.26787 7.41935 5.93548 7.08697 5.93548 6.67742V2.22581ZM22.2581 34.129H1.48387V4.45161H4.45161V6.67742C4.45161 7.90458 5.45026 8.90323 6.67742 8.90323C7.90458 8.90323 8.90323 7.90458 8.90323 6.67742V4.45161H23.7419V6.67742C23.7419 7.90458 24.7406 8.90323 25.9677 8.90323C27.1949 8.90323 28.1935 7.90458 28.1935 6.67742V4.45161H31.1613V24.3622C30.6998 23.8629 30.1945 23.4081 29.6492 23H29.6774V10.3871H2.96774V32.6452H11.871H18.5484H22.2581V34.129ZM39.3226 31.1613H40.8065V33.3871C40.8065 33.7966 40.4741 34.129 40.0645 34.129C39.655 34.129 39.3226 33.7966 39.3226 33.3871V31.1613ZM39.3226 38.5806H40.8065V40.8065H39.3226V38.5806ZM43.0323 44.5161H30.4194V42.2903H43.0323V44.5161Z" fill="white"/>
<path d="M5.93555 17.8066H11.871V13.355H5.93555V17.8066ZM7.41942 14.8389H10.3872V16.3227H7.41942V14.8389Z" fill="white"/>
<path d="M13.3547 17.8066H19.2902V13.355H13.3547V17.8066ZM14.8386 14.8389H17.8063V16.3227H14.8386V14.8389Z" fill="white"/>
<path d="M26.7096 13.355H20.7742V17.8066H26.7096V13.355ZM25.2258 16.3227H22.258V14.8389H25.2258V16.3227Z" fill="white"/>
<path d="M5.93555 23.7419H11.871V19.2903H5.93555V23.7419ZM7.41942 20.7742H10.3872V22.258H7.41942V20.7742Z" fill="white"/>
<path d="M5.93555 29.6774H11.871V25.2258H5.93555V29.6774ZM7.41942 26.7097H10.3872V28.1936H7.41942V26.7097Z" fill="white"/>
</svg>
